<svg xmlns="http://www.w3.org/2000/svg" xmlns:xlink="http://www.w3.org/1999/xlink" width="289.788" height="236.741" viewBox="0 0 289.788 236.741">
  <defs>
    <linearGradient id="linear-gradient" x1="0.432" y1="7.174" x2="1.056" y2="11.263" gradientUnits="objectBoundingBox">
      <stop offset="0" stop-color="#fff" stop-opacity="0"/>
      <stop offset="0.99" stop-color="#fff"/>
    </linearGradient>
    <linearGradient id="linear-gradient-2" x1="0.502" y1="1.893" x2="0.506" y2="0.651" xlink:href="#linear-gradient"/>
    <linearGradient id="linear-gradient-3" x1="0.673" y1="-0.383" x2="0.484" y2="17.51" gradientUnits="objectBoundingBox">
      <stop offset="0.17" stop-color="#00272e"/>
      <stop offset="1" stop-color="#69b9eb" stop-opacity="0"/>
    </linearGradient>
    <linearGradient id="linear-gradient-4" x1="0.497" y1="-20.351" x2="0.507" y2="-26.204" gradientUnits="objectBoundingBox">
      <stop offset="0" stop-opacity="0"/>
      <stop offset="0.91" stop-opacity="0.8"/>
      <stop offset="1"/>
    </linearGradient>
    <linearGradient id="linear-gradient-5" x1="0.509" y1="9.58" x2="0.494" y2="13.631" xlink:href="#linear-gradient"/>
    <linearGradient id="linear-gradient-6" x1="0.289" y1="-2.123" x2="-0.814" y2="-2.063" xlink:href="#linear-gradient-4"/>
    <linearGradient id="linear-gradient-7" x1="0.436" y1="1.318" x2="0.649" y2="-1.507" xlink:href="#linear-gradient"/>
    <linearGradient id="linear-gradient-8" x1="1.024" y1="2.296" x2="-0.006" y2="2.178" gradientUnits="objectBoundingBox">
      <stop offset="0" stop-color="#68e1fd"/>
      <stop offset="1" stop-color="#fff"/>
    </linearGradient>
    <linearGradient id="linear-gradient-9" x1="0.977" y1="2.232" x2="-0.195" y2="2.232" xlink:href="#linear-gradient"/>
    <linearGradient id="linear-gradient-10" x1="0.544" y1="65.904" x2="1.544" y2="65.904" gradientUnits="objectBoundingBox">
      <stop offset="0" stop-color="#68e1fd"/>
      <stop offset="1" stop-color="#69b9eb"/>
    </linearGradient>
    <linearGradient id="linear-gradient-11" x1="1.014" y1="86.385" x2="2.014" y2="86.385" xlink:href="#linear-gradient-10"/>
    <linearGradient id="linear-gradient-12" x1="3.087" y1="122.833" x2="4.087" y2="122.833" xlink:href="#linear-gradient-10"/>
    <linearGradient id="linear-gradient-13" x1="0.332" y1="2.434" x2="0.782" y2="0.924" xlink:href="#linear-gradient"/>
    <linearGradient id="linear-gradient-14" x1="0.467" y1="1.639" x2="0.617" y2="-2.859" xlink:href="#linear-gradient"/>
    <linearGradient id="linear-gradient-15" x1="1.11" y1="13.507" x2="-0.361" y2="13.362" gradientUnits="objectBoundingBox">
      <stop offset="0" stop-color="#ecc4d7"/>
      <stop offset="0.42" stop-color="#efd4d1"/>
      <stop offset="1" stop-color="#f2eac9"/>
    </linearGradient>
    <linearGradient id="linear-gradient-16" x1="52.905" y1="-89.29" x2="51.102" y2="-89.492" xlink:href="#linear-gradient-15"/>
    <linearGradient id="linear-gradient-17" x1="0.913" y1="12.184" x2="0.311" y2="12.19" xlink:href="#linear-gradient-15"/>
    <linearGradient id="linear-gradient-18" x1="0.563" y1="20.317" x2="-1.507" y2="19.267" xlink:href="#linear-gradient-15"/>
    <linearGradient id="linear-gradient-19" x1="0.956" y1="8.538" x2="0.102" y2="8.448" xlink:href="#linear-gradient-15"/>
    <linearGradient id="linear-gradient-20" x1="0.038" y1="8.084" x2="1.038" y2="8.084" xlink:href="#linear-gradient-15"/>
    <linearGradient id="linear-gradient-21" x1="0.175" y1="12.695" x2="1.175" y2="12.695" gradientUnits="objectBoundingBox">
      <stop offset="0" stop-color="#183866"/>
      <stop offset="1" stop-color="#1a7fc1"/>
    </linearGradient>
    <linearGradient id="linear-gradient-22" x1="0.06" y1="4.934" x2="1.06" y2="4.934" xlink:href="#linear-gradient-15"/>
    <linearGradient id="linear-gradient-23" x1="0.246" y1="2.451" x2="1.248" y2="3.962" xlink:href="#linear-gradient"/>
    <linearGradient id="linear-gradient-24" x1="0.086" y1="7.566" x2="1.09" y2="7.566" xlink:href="#linear-gradient-15"/>
  </defs>
  <g id="Group_34" data-name="Group 34" transform="translate(-1086.548 -365.447)">
    <g id="Group_29" data-name="Group 29" transform="translate(1141.548 597.406)">
      <g id="Group_28" data-name="Group 28" transform="translate(-55 -231.959)">
        <g id="Group_26" data-name="Group 26">
          <g id="book_lover">
            <path id="Path_209" data-name="Path 209" d="M105.037,17.272c-7.615,7.8-13.26,17.826-21.352,25C70,54.425,51.432,56.841,35.341,64.578,24.7,69.7,14.605,77.8,9.9,89.534c-3.8,9.507-3.322,20.714.631,30.106A32.483,32.483,0,0,1,8.886,148C3.026,158.258-.507,169.98.063,182.018c.882,18.515,13.6,36.781,30.3,38.484,5.734.586,11.5-.7,17.173-1.85,34.285-6.932,70.574-8.715,103.186,4.861,8.938,3.724,17.542,8.576,26.835,11.024,10.855,2.86,22.172,2.317,33.329,1.759,17.41-.871,37.722-3.565,46.613-20.139,12.324-22.976-7.307-51.659-4.515-78.184,1.545-14.657,9.905-27.547,11.669-42.16,1.914-15.885-4.9-32.677-16.9-41.661-16.671-12.474-39.725-9.448-56.938-20.995-13.618-9.139-22.979-27-39.034-31.857C136.032-3.462,116.5,5.546,105.037,17.272Z" transform="translate(-0.003 -0.001)" fill="#68e1fd" opacity="0.18"/>
            <path id="Path_210" data-name="Path 210" d="M76.639,273.735c-1.684-12.783-5.7-25.091-7.329-37.886s-.495-26.866,6.92-36.84c4.838-6.508,11.79-10.569,18.589-14.376,6.046-3.387,12.271-6.762,18.994-7.681,5.927-.792,11.909.337,17.836,1.121a105.856,105.856,0,0,0,33.579-.432c14.453-2.773,28.118-9.111,42.245-13.4,13.837-4.223,27.534-6.374,43,1.585,10.694,5.506,18.585,17,21.144,29.71,4.136,20.531-5.2,43.285,2.648,62.442,2.215,5.4,5.655,10.046,8.465,15.093a69.879,69.879,0,0,1,7.375,20.163,16.8,16.8,0,0,1,.226,7.451c-1.613,6.18-8.522,8.236-14.335,8.743-19.327,1.688-38.636-2.3-57.913-4.615-31.293-3.755-62.869-3.094-94.216-.507q-11.507.951-23,2.218c-6.182.669-17.919,4.754-23.746,2.809-6.5-2.175-2.233-6.885-.857-13.647A66.653,66.653,0,0,0,76.639,273.735Z" transform="translate(-44.056 -96.899)" fill="#6cb1dc" opacity="0.11"/>
            <path id="Path_211" data-name="Path 211" d="M349.352,137.18s-2.964,13.318-7.393,17.034c-4.573,3.835-9.318-3.533-9.318-3.533L330,155.957s4.885,8.715,9.809,8.917,9.246-4.67,9.246-4.67Z" transform="translate(-211.738 -82.839)" fill="#6cb1dc"/>
            <path id="Path_212" data-name="Path 212" d="M313.37,113.589l.67-.329L327.7,117.1l4.1,30.581h-.512Z" transform="translate(-201.068 -68.395)" fill="#3f3d56"/>
            <path id="Path_213" data-name="Path 213" d="M71.367,526.5s-29.8,2.206-34.085,5.364,29.279,3.85,82.838,2.072,94.8,0,124,3.256,68.807,2.626,69.356-5.348-72.3-8.069-72.3-8.069Z" transform="translate(-23.687 -316.29)" fill="#000405" opacity="0.05"/>
            <path id="Path_214" data-name="Path 214" d="M578.946,307.964s-1,9.2-7.429,10.1h-28.24L539.26,267H569c2.4,0,7.322,2.86,8.3,6.909a19.294,19.294,0,0,1,.262,2.27h0C578.229,284.034,578.946,307.964,578.946,307.964Z" transform="translate(-346.006 -161.234)" fill="#6cb1dc"/>
            <path id="Path_215" data-name="Path 215" d="M693.3,110.88H666.063l-8.085-8.774-.358-.4h27.129c2.4,0,7.322,2.86,8.3,6.909a19.885,19.885,0,0,1,.247,2.262Z" transform="translate(-421.949 -61.42)" fill="url(#linear-gradient)"/>
            <path id="Path_216" data-name="Path 216" d="M136.692,271.747l-2.659-1.279a1.866,1.866,0,0,1-.952-2.034,1.69,1.69,0,0,1,1.608-1.444H278.621a11.42,11.42,0,0,1,9.293,4.833,9.684,9.684,0,0,1,1.792,4.357c.649,4.781.251,25.606.072,33.425-.1,4.247-2.928,7.923-6.741,8.43l-.409.044H143.222Z" transform="translate(-85.367 -161.227)" fill="#68e1fd"/>
            <path id="Path_217" data-name="Path 217" d="M136.692,271.747l-2.659-1.279a1.866,1.866,0,0,1-.952-2.034,1.69,1.69,0,0,1,1.608-1.444H278.621a11.42,11.42,0,0,1,9.293,4.833,9.684,9.684,0,0,1,1.792,4.357c.649,4.781.251,25.606.072,33.425-.1,4.247-2.928,7.923-6.741,8.43l-.409.044H143.222Z" transform="translate(-85.367 -161.227)" fill="#68e1fd"/>
            <path id="Path_218" data-name="Path 218" d="M289.788,309.585c-.1,4.247-2.928,7.923-6.741,8.43l-.409.044H143.232l-6.54-46.312-2.659-1.279a1.866,1.866,0,0,1-.952-2.034,1.69,1.69,0,0,1,1.608-1.444H278.621a11.42,11.42,0,0,1,9.293,4.833,9.684,9.684,0,0,1,1.792,4.357C290.355,280.941,289.968,301.765,289.788,309.585Z" transform="translate(-85.367 -161.227)" fill="url(#linear-gradient-2)"/>
            <path id="Path_219" data-name="Path 219" d="M119.487,389.243h153.67a2.12,2.12,0,0,0,2.007-2.214h0a2.121,2.121,0,0,0-2.007-2.218H119.487a2.121,2.121,0,0,0-2.007,2.218h0A2.12,2.12,0,0,0,119.487,389.243Z" transform="translate(-75.38 -232.376)" opacity="0.61" fill="url(#linear-gradient-3)"/>
            <path id="Path_220" data-name="Path 220" d="M119.487,389.243h153.67a2.12,2.12,0,0,0,2.007-2.214h0a2.121,2.121,0,0,0-2.007-2.218H119.487a2.121,2.121,0,0,0-2.007,2.218h0A2.12,2.12,0,0,0,119.487,389.243Z" transform="translate(-75.38 -232.376)" fill="#68e1fd"/>
            <path id="Path_221" data-name="Path 221" d="M305.44,411.923v27.709c0,7.527-5.518,13.63-12.328,13.635H130.982c-6.8.011-12.322-6.074-12.332-13.591h0V411.923a14.61,14.61,0,0,1,1.828-7.13,12.663,12.663,0,0,1,.867-1.363,11.905,11.905,0,0,1,9.637-5.13H293.109c6.809,0,12.328,6.1,12.332,13.631h0Z" transform="translate(-76.13 -240.522)" fill="#6cb1dc"/>
            <path id="Path_222" data-name="Path 222" d="M244.3,524.946H132.971A12.322,12.322,0,0,1,121.75,517H237.214S238.876,523.734,244.3,524.946Z" transform="translate(-78.119 -312.201)" fill="url(#linear-gradient-4)"/>
            <path id="Path_223" data-name="Path 223" d="M245.578,398.26c-5.118.935-6.547,6.493-6.547,6.493H123.75l.867-1.363a11.905,11.905,0,0,1,9.637-5.13Z" transform="translate(-79.403 -240.498)" fill="url(#linear-gradient-5)"/>
            <path id="Path_224" data-name="Path 224" d="M523.427,415.788V443.5a13.9,13.9,0,0,1-6.375,11.939H466.134c-4.275,0-7.742-3.827-7.744-8.552h0V413.26c0-4.729,3.466-8.563,7.744-8.56h52.143A14.111,14.111,0,0,1,523.427,415.788Z" transform="translate(-294.117 -244.387)" fill="url(#linear-gradient-6)"/>
            <path id="Path_225" data-name="Path 225" d="M536.529,415.77v27.709q0,.768-.075,1.53c-.021.221-.05.438-.082.656a14.027,14.027,0,0,1-.681,2.773c-.075.226-.158.444-.251.661a14.124,14.124,0,0,1-1.505,2.773c-.158.222-.322.444-.5.658a12.655,12.655,0,0,1-3.283,2.912h-43.6a7.415,7.415,0,0,1-5.816-2.912,7.51,7.51,0,0,1-.473-.658,8.731,8.731,0,0,1-1.186-2.773c-.054-.214-.1-.436-.133-.661a9.12,9.12,0,0,1-.133-1.565V413.242a9.3,9.3,0,0,1,.172-1.784,5.764,5.764,0,0,1,.147-.656,8.786,8.786,0,0,1,1.276-2.773,7.874,7.874,0,0,1,.505-.658,7.374,7.374,0,0,1,5.641-2.7h44.829a12.916,12.916,0,0,1,2.541,2.7c.151.214.3.432.437.658a13.7,13.7,0,0,1,1.326,2.773c.079.218.154.44.215.658a13.952,13.952,0,0,1,.552,2.773c.025.218.043.44.054.662S536.529,415.5,536.529,415.77Z" transform="translate(-307.219 -244.369)" fill="#68e1fd"/>
            <path id="Path_226" data-name="Path 226" d="M536.529,415.77v27.709q0,.768-.075,1.53c-.021.221-.05.438-.082.656a14.027,14.027,0,0,1-.681,2.773c-.075.226-.158.444-.251.661a14.124,14.124,0,0,1-1.505,2.773c-.158.222-.322.444-.5.658a12.655,12.655,0,0,1-3.283,2.912h-43.6a7.415,7.415,0,0,1-5.816-2.912,7.51,7.51,0,0,1-.473-.658,8.731,8.731,0,0,1-1.186-2.773c-.054-.214-.1-.436-.133-.661a9.12,9.12,0,0,1-.133-1.565V413.242a9.3,9.3,0,0,1,.172-1.784,5.764,5.764,0,0,1,.147-.656,8.786,8.786,0,0,1,1.276-2.773,7.874,7.874,0,0,1,.505-.658,7.374,7.374,0,0,1,5.641-2.7h44.829a12.916,12.916,0,0,1,2.541,2.7c.151.214.3.432.437.658a13.7,13.7,0,0,1,1.326,2.773c.079.218.154.44.215.658a13.952,13.952,0,0,1,.552,2.773c.025.218.043.44.054.662S536.529,415.5,536.529,415.77Z" transform="translate(-307.219 -244.369)" fill="url(#linear-gradient-7)"/>
            <path id="Path_227" data-name="Path 227" d="M537.213,412.178H483.26a7.889,7.889,0,0,1,.505-.658h53.007C536.922,411.734,537.073,411.952,537.213,412.178Z" transform="translate(-310.074 -248.505)" fill="#fff"/>
            <path id="Path_228" data-name="Path 228" d="M536.206,420.808H479.29a5.775,5.775,0,0,1,.147-.658h56.555C536.07,420.368,536.146,420.59,536.206,420.808Z" transform="translate(-307.527 -253.716)" fill="#fff"/>
            <path id="Path_229" data-name="Path 229" d="M536.5,429.442H478.8v-.661h57.644C536.469,429,536.487,429.22,536.5,429.442Z" transform="translate(-307.213 -258.928)" fill="#fff"/>
            <rect id="Rectangle_1094" data-name="Rectangle 1094" width="57.723" height="0.658" transform="translate(171.591 173.275)" fill="#fff"/>
            <rect id="Rectangle_1095" data-name="Rectangle 1095" width="57.723" height="0.658" transform="translate(171.591 176.693)" fill="#fff"/>
            <rect id="Rectangle_1096" data-name="Rectangle 1096" width="57.723" height="0.658" transform="translate(171.591 180.116)" fill="#fff"/>
            <rect id="Rectangle_1097" data-name="Rectangle 1097" width="57.723" height="0.654" transform="translate(171.591 183.538)" fill="#fff"/>
            <rect id="Rectangle_1098" data-name="Rectangle 1098" width="57.723" height="0.654" transform="translate(171.591 186.957)" fill="#fff"/>
            <rect id="Rectangle_1099" data-name="Rectangle 1099" width="57.723" height="0.654" transform="translate(171.591 190.38)" fill="#fff"/>
            <rect id="Rectangle_1100" data-name="Rectangle 1100" width="57.723" height="0.654" transform="translate(171.591 193.798)" fill="#fff"/>
            <rect id="Rectangle_1101" data-name="Rectangle 1101" width="57.723" height="0.658" transform="translate(171.591 197.221)" fill="#fff"/>
            <path id="Path_230" data-name="Path 230" d="M536.454,506.5c-.022.222-.05.44-.082.658H478.81V506.5Z" transform="translate(-307.219 -305.861)" fill="#fff"/>
            <path id="Path_231" data-name="Path 231" d="M535.965,515.13c-.075.226-.158.444-.251.662H479.343c-.054-.214-.1-.436-.133-.662Z" transform="translate(-307.476 -311.072)" fill="#fff"/>
            <path id="Path_232" data-name="Path 232" d="M536.533,523.77c-.158.222-.323.444-.5.658h-52.7a7.554,7.554,0,0,1-.473-.658Z" transform="translate(-309.818 -316.29)" fill="#fff"/>
            <path id="Path_233" data-name="Path 233" d="M233.917,319.852H270.65a10.319,10.319,0,0,1-5.017,1.3H129.05a10.24,10.24,0,0,1-6.322-2.143,9.933,9.933,0,0,1-1.459-1.367c-.143-.162-.283-.333-.416-.5a10.5,10.5,0,0,1-1.269-2.119c-.075-.166-.147-.337-.211-.5a10.149,10.149,0,0,1-.573-2.119c-.025-.166-.05-.333-.068-.507a11.008,11.008,0,0,1-.064-1.188V289.445q-.005-.339.021-.677c.021-.222.025-.337.043-.5a10.347,10.347,0,0,1,.462-2.119c.057-.17.118-.337.183-.507a10.041,10.041,0,0,1,1.118-2.115l.358-.507a10.413,10.413,0,0,1,.849-.967A10.307,10.307,0,0,1,129.05,279H265.633a10.3,10.3,0,0,1,6.046,1.981H233.917a6.515,6.515,0,0,0-4.752,2.068,5.537,5.537,0,0,0-.426.507,6.448,6.448,0,0,0-1.075,2.115,4.969,4.969,0,0,0-.125.507,6.476,6.476,0,0,0-.143,1.367V313.32a6.6,6.6,0,0,0,.111,1.188,4.834,4.834,0,0,0,.115.5,6.37,6.37,0,0,0,1,2.119q.187.262.4.5a6.413,6.413,0,0,0,2.175,1.632A6.345,6.345,0,0,0,233.917,319.852Z" transform="translate(-76.141 -168.479)" fill="#68e1fd"/>
            <path id="Path_234" data-name="Path 234" d="M470.684,292.867v21.506a2.055,2.055,0,0,1-.022.364c-.021.119,0,.242-.029.36a2.232,2.232,0,0,0-.039.329,1.23,1.23,0,0,1-.039.254.715.715,0,0,1-.021.127c-.018.115-.039.234-.065.349s-.032.151-.054.226-.032.147-.054.222-.039.158-.061.238l-.075.242a.6.6,0,0,1-.057.194c-.021.063-.057.17-.09.254l-.1.257a.924.924,0,0,1-.057.139,1.8,1.8,0,0,1-.079.194c-.022.055-.05.111-.075.166s-.075.17-.118.25-.122.257-.19.4l-.111.2c-.1.182-.2.357-.315.527-.057.091-.115.174-.172.257-.115.17-.237.333-.358.5s-.272.341-.419.5a10.358,10.358,0,0,1-.935.931.049.049,0,0,1-.025.024c-.108.1-.215.182-.326.273l-.358.273-.358.254c-.115.079-.229.151-.358.226l-.412.242H428.582a6.521,6.521,0,0,1-4.9-2.222q-.21-.24-.4-.5a6.312,6.312,0,0,1-1-2.107,4.546,4.546,0,0,1-.115-.5,6.6,6.6,0,0,1-.111-1.188V290.938a6.369,6.369,0,0,1,.143-1.359,4.879,4.879,0,0,1,.125-.5,6.388,6.388,0,0,1,1.075-2.1,5.526,5.526,0,0,1,.426-.507,6.5,6.5,0,0,1,4.752-2.056h37.762c.165.119.33.242.487.372l.183.151a9.011,9.011,0,0,1,.717.658l.2.206.143.158.193.222.194.238.039.051.029.04c.115.151.229.309.337.467.057.079.111.162.165.242a.063.063,0,0,0,.021.032q.147.23.279.463l.154.277c.093.174.183.357.265.535.039.1.082.182.122.273s.079.19.111.281.068.166.1.254.061.166.086.25l.079.25a8.757,8.757,0,0,1,.262,1.05.884.884,0,0,1,.025.139,1.513,1.513,0,0,0,.043.25c0,.083.039.281.057.42s.036.333.043.5v.269C470.673,292.566,470.684,292.729,470.684,292.867Z" transform="translate(-270.807 -171.747)" fill="url(#linear-gradient-8)"/>
            <path id="Path_235" data-name="Path 235" d="M231.19,322.238c-.81.218-1.645.416-2.509.6H131.3a40.288,40.288,0,0,1-8.572-.844,9.934,9.934,0,0,1-1.459-1.367c-.143-.162-.283-.333-.416-.5a10.5,10.5,0,0,1-1.269-2.119c-.075-.166-.147-.337-.211-.5a10.148,10.148,0,0,1-.573-2.119c-.025-.166-.05-.333-.068-.507a11.007,11.007,0,0,1-.064-1.188V292.433q-.005-.339.021-.677c.021-.222.025-.337.043-.5a10.348,10.348,0,0,1,.462-2.119c.057-.17.118-.337.183-.507a10.042,10.042,0,0,1,1.118-2.115l.358-.507a10.406,10.406,0,0,1,.849-.967,39.9,39.9,0,0,1,9.6-1.089h100.1l.8.23a6.428,6.428,0,0,0-3.046,1.838,5.529,5.529,0,0,0-.426.507,6.448,6.448,0,0,0-1.075,2.115,4.953,4.953,0,0,0-.125.507,6.476,6.476,0,0,0-.143,1.367v25.776a6.6,6.6,0,0,0,.111,1.188,4.842,4.842,0,0,0,.115.5,6.369,6.369,0,0,0,1,2.119q.187.262.4.5a6.425,6.425,0,0,0,2.175,1.636Z" transform="translate(-76.141 -171.467)" fill="#68e1fd"/>
            <path id="Path_236" data-name="Path 236" d="M231.19,322.238c-.81.218-1.645.416-2.509.6H131.3a40.288,40.288,0,0,1-8.572-.844,9.934,9.934,0,0,1-1.459-1.367c-.143-.162-.283-.333-.416-.5a10.5,10.5,0,0,1-1.269-2.119c-.075-.166-.147-.337-.211-.5a10.148,10.148,0,0,1-.573-2.119c-.025-.166-.05-.333-.068-.507a11.007,11.007,0,0,1-.064-1.188V292.433q-.005-.339.021-.677c.021-.222.025-.337.043-.5a10.348,10.348,0,0,1,.462-2.119c.057-.17.118-.337.183-.507a10.042,10.042,0,0,1,1.118-2.115l.358-.507a10.406,10.406,0,0,1,.849-.967,39.9,39.9,0,0,1,9.6-1.089h100.1l.8.23a6.428,6.428,0,0,0-3.046,1.838,5.529,5.529,0,0,0-.426.507,6.448,6.448,0,0,0-1.075,2.115,4.953,4.953,0,0,0-.125.507,6.476,6.476,0,0,0-.143,1.367v25.776a6.6,6.6,0,0,0,.111,1.188,4.842,4.842,0,0,0,.115.5,6.369,6.369,0,0,0,1,2.119q.187.262.4.5a6.425,6.425,0,0,0,2.175,1.636Z" transform="translate(-76.141 -171.467)" fill="url(#linear-gradient-9)"/>
            <path id="Path_237" data-name="Path 237" d="M548.8,386.11a9.342,9.342,0,0,1-.935,1.03A10.568,10.568,0,0,0,548.8,386.11Z" transform="translate(-351.524 -233.161)" fill="url(#linear-gradient-10)"/>
            <path id="Path_238" data-name="Path 238" d="M552.192,291.034c-.054-.091-.107-.182-.165-.269-.108-.174-.222-.349-.337-.515C551.869,290.5,552.038,290.765,552.192,291.034Z" transform="translate(-353.981 -175.274)" fill="url(#linear-gradient-11)"/>
            <path id="Path_239" data-name="Path 239" d="M556.106,298.4c.029.091.054.182.079.273-.047-.186-.1-.368-.165-.551C556.052,298.211,556.081,298.3,556.106,298.4Z" transform="translate(-356.759 -180.026)" fill="url(#linear-gradient-12)"/>
            <path id="Path_240" data-name="Path 240" d="M459.66,292.867v21.744a3.258,3.258,0,0,1-.036.46,9.886,9.886,0,0,1-.38,1.917c-.043.155-.09.305-.143.452a10.434,10.434,0,0,1-4.791,5.68H411.391a6.5,6.5,0,0,1-6.451-5.673,3.26,3.26,0,0,1-.043-.46,3.651,3.651,0,0,1-.018-.4V290.938a6.521,6.521,0,0,1,6.522-6.528h43.918A10.375,10.375,0,0,1,459.66,292.867Z" transform="translate(-259.783 -171.747)" fill="#6cb1dc"/>
            <path id="Path_241" data-name="Path 241" d="M471.259,289.647H425.81a5.539,5.539,0,0,1,.426-.507h44.646A4.583,4.583,0,0,1,471.259,289.647Z" transform="translate(-273.213 -174.603)" fill="#fff"/>
            <path id="Path_242" data-name="Path 242" d="M470.41,296.227H422.46a4.929,4.929,0,0,1,.125-.507h47.663C470.3,295.9,470.356,296.073,470.41,296.227Z" transform="translate(-271.063 -178.577)" fill="#fff"/>
            <path id="Path_243" data-name="Path 243" d="M470.666,302.887H422.06v-.507h48.566C470.626,302.546,470.655,302.717,470.666,302.887Z" transform="translate(-270.807 -182.599)" fill="#fff"/>
            <rect id="Rectangle_1102" data-name="Rectangle 1102" width="48.627" height="0.507" transform="translate(151.253 122.404)" fill="#fff"/>
            <rect id="Rectangle_1103" data-name="Rectangle 1103" width="48.627" height="0.507" transform="translate(151.253 125.026)" fill="#fff"/>
            <rect id="Rectangle_1104" data-name="Rectangle 1104" width="48.627" height="0.507" transform="translate(151.253 127.648)" fill="#fff"/>
            <rect id="Rectangle_1105" data-name="Rectangle 1105" width="48.627" height="0.503" transform="translate(151.253 130.275)" fill="#fff"/>
            <rect id="Rectangle_1106" data-name="Rectangle 1106" width="48.627" height="0.503" transform="translate(151.253 132.897)" fill="#fff"/>
            <rect id="Rectangle_1107" data-name="Rectangle 1107" width="48.627" height="0.503" transform="translate(151.253 135.52)" fill="#fff"/>
            <rect id="Rectangle_1108" data-name="Rectangle 1108" width="48.627" height="0.503" transform="translate(151.253 138.142)" fill="#fff"/>
            <rect id="Rectangle_1109" data-name="Rectangle 1109" width="48.627" height="0.507" transform="translate(151.253 140.764)" fill="#fff"/>
            <path id="Path_244" data-name="Path 244" d="M470.691,362v.507H422.06V362Z" transform="translate(-270.807 -218.601)" fill="#fff"/>
            <path id="Path_245" data-name="Path 245" d="M470.177,368.59c0,.17-.2.337-.211.507H422.485a4.931,4.931,0,0,1-.115-.507Z" transform="translate(-271.006 -222.581)" fill="#fff"/>
            <path id="Path_246" data-name="Path 246" d="M233.745,289.647H123.75l.358-.507H232.87C233.171,289.306,233.462,289.481,233.745,289.647Z" transform="translate(-79.403 -174.603)" fill="#fff"/>
            <path id="Path_247" data-name="Path 247" d="M230.427,296.227H120.12c.057-.17.118-.337.183-.507h109.69a5.6,5.6,0,0,1,.434.507Z" transform="translate(-77.073 -178.577)" fill="#fff"/>
            <path id="Path_248" data-name="Path 248" d="M230.74,302.893H118.71a3.931,3.931,0,0,1,.043-.5H230.626A4.059,4.059,0,0,1,230.74,302.893Z" transform="translate(-76.169 -182.605)" fill="#fff"/>
            <rect id="Rectangle_1110" data-name="Rectangle 1110" width="112.106" height="0.503" transform="translate(42.516 122.404)" fill="#fff"/>
            <rect id="Rectangle_1111" data-name="Rectangle 1111" width="112.106" height="0.503" transform="translate(42.516 125.026)" fill="#fff"/>
            <rect id="Rectangle_1112" data-name="Rectangle 1112" width="112.106" height="0.507" transform="translate(42.516 127.648)" fill="#fff"/>
            <rect id="Rectangle_1113" data-name="Rectangle 1113" width="112.106" height="0.503" transform="translate(42.516 130.275)" fill="#fff"/>
            <rect id="Rectangle_1114" data-name="Rectangle 1114" width="112.106" height="0.499" transform="translate(42.516 132.901)" fill="#fff"/>
            <rect id="Rectangle_1115" data-name="Rectangle 1115" width="112.106" height="0.499" transform="translate(42.516 135.52)" fill="#fff"/>
            <rect id="Rectangle_1116" data-name="Rectangle 1116" width="112.106" height="0.503" transform="translate(42.516 138.142)" fill="#fff"/>
            <rect id="Rectangle_1117" data-name="Rectangle 1117" width="112.106" height="0.507" transform="translate(42.516 140.764)" fill="#fff"/>
            <path id="Path_249" data-name="Path 249" d="M230.69,362a4.882,4.882,0,0,1-.168.507H118.878c-.025-.166-.05-.333-.068-.507Z" transform="translate(-76.233 -218.601)" fill="#fff"/>
            <path id="Path_250" data-name="Path 250" d="M230.328,368.6a7.034,7.034,0,0,1-.505.5H120.831c-.075-.166-.147-.337-.211-.5Z" transform="translate(-77.394 -222.587)" fill="#fff"/>
            <path id="Path_251" data-name="Path 251" d="M346.937,266.994a24.318,24.318,0,0,1-4.533,4.785c-4.709,2.741-10.163,4.841-12.926,9.872-3.5,6.338-1.236,14.629-2.842,21.847a7.108,7.108,0,0,1-1.67,3.565,2.562,2.562,0,0,1-3.379.4,4.925,4.925,0,0,1-1.236-3.193,137.981,137.981,0,0,1-.158-33.493c-5.376,2.654-9.013,8.255-11.884,13.92s-5.279,11.737-9.278,16.495c-1.136,1.347-2.63,2.666-4.279,2.4-1.982-2.773-.943-6.825.183-10.145a199.292,199.292,0,0,1,7.433-19.719,17.992,17.992,0,0,1,3.559-5.641,9.149,9.149,0,0,1,1.391-1.1Z" transform="translate(-188.406 -161.228)" fill="#3f3d56" opacity="0.2"/>
            <path id="Path_252" data-name="Path 252" d="M277.735,375.22c-.122.178-.258.317-.394.5H125.166c-.143-.162-.283-.333-.416-.5Z" transform="translate(-80.044 -226.585)" fill="#fff"/>
            <path id="Path_253" data-name="Path 253" d="M168.765,453.225H150.377c-5.9-1.64-8.751-8.687-8.751-8.687s-.534-34.463,0-38.821,9.465-7.487,9.465-7.487h17.675c-5.9.935-10.178,7.289-10.178,7.289s-.358,38.088,0,40.651S168.765,453.225,168.765,453.225Z" transform="translate(-90.719 -240.48)" fill="url(#linear-gradient-13)"/>
            <path id="Path_254" data-name="Path 254" d="M191.142,453.225h-5.9c-5.888-1.64-8.744-8.687-8.744-8.687s-.538-34.463,0-38.821,9.461-7.487,9.461-7.487h5.178c-5.9.935-10.178,7.289-10.178,7.289s-.358,38.088,0,40.651S191.142,453.225,191.142,453.225Z" transform="translate(-113.097 -240.48)" fill="#68e1fd"/>
            <path id="Path_255" data-name="Path 255" d="M191.142,453.225h-5.9c-5.888-1.64-8.744-8.687-8.744-8.687s-.538-34.463,0-38.821,9.461-7.487,9.461-7.487h5.178c-5.9.935-10.178,7.289-10.178,7.289s-.358,38.088,0,40.651S191.142,453.225,191.142,453.225Z" transform="translate(-113.097 -240.48)" fill="url(#linear-gradient-14)"/>
            <path id="Path_256" data-name="Path 256" d="M286.173,329.8l-1.713,3.288L288.438,335l1.645-3.129Z" transform="translate(-182.519 -199.157)" fill="url(#linear-gradient-15)"/>
            <path id="Path_257" data-name="Path 257" d="M363.536,352.09l-.186,3.664,4.336-.277.183-3.387Z" transform="translate(-233.137 -212.617)" fill="url(#linear-gradient-16)"/>
            <path id="Path_258" data-name="Path 258" d="M267.526,332.623a1.66,1.66,0,0,0-.358-.527,1.25,1.25,0,0,0-.588-.238L259.7,330.33a2.607,2.607,0,0,0-.76-.091,2.53,2.53,0,0,0-1.634,1.133,1.71,1.71,0,0,0-.452.982,1.757,1.757,0,0,0,.631,1.188A18.188,18.188,0,0,0,259,334.937a31.47,31.47,0,0,0,3.179,2.167c.738.46,1.477.919,2.233,1.339,1.244.689,2.534,1.268,3.831,1.83a.359.359,0,0,0,.523-.135h0a11.8,11.8,0,0,0,2.179-3.747c.125-.345.358-1.1,0-1.386-.125-.1-.48-.083-.638-.123a4.539,4.539,0,0,1-2.788-2.254Z" transform="translate(-164.803 -199.421)" fill="#3f3d56"/>
            <path id="Path_259" data-name="Path 259" d="M347.6,356.744a1.508,1.508,0,0,0-.548-.257,1.277,1.277,0,0,0-.616.119l-6.644,2.508a2.753,2.753,0,0,0-.717.341,2.939,2.939,0,0,0-.9,1.89,1.766,1.766,0,0,0,.061,1.1,1.51,1.51,0,0,0,1.075.669,14.849,14.849,0,0,0,1.95.356,27.925,27.925,0,0,0,3.731.107c.849,0,1.7-.024,2.541-.083a41.643,41.643,0,0,0,4.143-.547.4.4,0,0,0,.394-.4,12.91,12.91,0,0,0,.183-4.452c-.05-.368-.2-1.145-.638-1.188-.154-.02-.452.194-.606.246a3.709,3.709,0,0,1-.717.166A4.1,4.1,0,0,1,347.6,356.744Z" transform="translate(-216.944 -215.271)" fill="#3f3d56"/>
            <path id="Path_260" data-name="Path 260" d="M225.4,90" transform="translate(-144.624 -54.349)" fill="#68e1fd" opacity="0.18"/>
            <path id="Path_261" data-name="Path 261" d="M341.4,224.923s-1.125,11.642-10.834,13.706c-6.572,1.39-14.611.9-19.112.432a5.635,5.635,0,0,0-5.433,2.959l-13.977,24.608L288,264.465h-.032l-1.434-.761,11.636-30.031a12.86,12.86,0,0,1,7.748-7.875l13.371-4.575,3.125-1.07S334.928,218.759,341.4,224.923Z" transform="translate(-183.847 -132.863)" fill="#3f3d56"/>
            <path id="Path_262" data-name="Path 262" d="M319.336,223l.878,2.056s-15.41,4.991-17.3,7.419c-2.527,3.248-14.876,33.77-14.876,33.77H288l-1.433-.761,11.622-30.011a12.86,12.86,0,0,1,7.748-7.875Z" transform="translate(-183.873 -134.663)" fill="#fff" opacity="0.24"/>
            <path id="Path_263" data-name="Path 263" d="M370.251,227.3s-12.378,13.35-12.78,20.48,1.329,29.488,1.329,29.488h6.006s-.3-27.143,2.15-27.333,13.543-8.1,15.324-10.355,4.623-10.268,4.623-10.268Z" transform="translate(-229.326 -137.26)" fill="#3f3d56"/>
            <path id="Path_264" data-name="Path 264" d="M398.8,169.352a20.6,20.6,0,0,1-20.226-.951,23.114,23.114,0,0,1-2.584-1.905s4.343-8.576.885-21.035c-1.48-5.328-1.512-15.5,5.816-16.95h.036c7.289-1.43,6.877.559,6.877.559l3.3,3.541C399.241,138.3,399.936,147.011,398.8,169.352Z" transform="translate(-241.247 -77.292)" fill="#6cb1dc"/>
            <path id="Path_265" data-name="Path 265" d="M382.727,129.28a4.543,4.543,0,0,1-1.373,1.834s-4.358,2.135-3.487,9.2,2.466,20.646,2.466,20.646l-1.76,8.22a23.11,23.11,0,0,1-2.584-1.905s4.343-8.576.885-21.034c-1.48-5.328-1.512-15.5,5.816-16.95Z" transform="translate(-241.247 -78.069)" fill="#fff" opacity="0.24"/>
            <path id="Path_266" data-name="Path 266" d="M397.052,128.14a4.266,4.266,0,0,1-6.422.63h0l-.158-.151s-5.376,5.942.057,6.659c2.867.4,6.4-3.438,7.418-5.605Z" transform="translate(-249.017 -77.38)" fill="#3f3d56"/>
            <path id="Path_267" data-name="Path 267" d="M400.181,114.09c-.021.079-1.032,3.5-1.792,5.942a7.792,7.792,0,0,1-3.347,4.472A7.49,7.49,0,0,1,392,125.693a1.452,1.452,0,0,1-1.527-1.406h0a1.666,1.666,0,0,1,.19-.931c.251-.487.523-1.05.774-1.648a9.043,9.043,0,0,0,.889-3.72v-.119a1.728,1.728,0,0,1,.839-1.513,10.741,10.741,0,0,1,3.286-1.462,31,31,0,0,1,3.734-.8Z" transform="translate(-250.533 -68.896)" fill="url(#linear-gradient-17)"/>
            <path id="Path_268" data-name="Path 268" d="M394.009,122.524a2.647,2.647,0,0,1-.749.059,9.043,9.043,0,0,0,.889-3.72l.831-1.632.62-1.212,2.666-.25,2.695-.25C399.184,120.167,396.2,122.092,394.009,122.524Z" transform="translate(-252.328 -69.759)" fill="url(#linear-gradient-18)"/>
            <path id="Path_269" data-name="Path 269" d="M393.065,74.369c-3.906-.9-7.735,1.863-8.554,6.18-.036.2-.068.4-.093.614a29.849,29.849,0,0,0-.068,9.7c1.229,4.971,7.834,3.169,9.174,1.66s6.727-8.465,5.845-11.171C398.807,79.511,396.836,75.308,393.065,74.369Z" transform="translate(-246.378 -44.807)" fill="url(#linear-gradient-19)"/>
            <path id="Path_270" data-name="Path 270" d="M383.9,61.807l1.018,1.034a4.254,4.254,0,0,0-4.121.86,6.6,6.6,0,0,0-2.8,3.961l2.261-.448s-.824,2.69,2.924,4.033,7.716,2.725,7.716,2.725l-.8-2.377s2.1,1.751,2.279,2.844a36.3,36.3,0,0,1-.358,4.952s1.605-2.416,1.849-1.711-1.154,2.912-1.792,3.3-.939,2.02-1.018,2.139,2.867-1.363,3.157-2.092,4.569-7.665,3.394-9.741l.964.2a4.768,4.768,0,0,0-1.67-1.355S392.9,59.276,383.9,61.807Z" transform="translate(-242.537 -37.093)" fill="#3f3d56"/>
            <path id="Path_271" data-name="Path 271" d="M374.85,207.834c-.541-.6-1.075-1.311-1.831-1.454-.265.7.276,1.414.505,2.123a.624.624,0,0,1,0,.507c-.107.19-.358.2-.555.186a8.048,8.048,0,0,1-2.777-.737,8.028,8.028,0,0,0-2.487-1.006.406.406,0,0,0-.28.04c-.215.151-.09.515.065.737a8.3,8.3,0,0,0,1.115,1.311,5.685,5.685,0,0,0-1.971-.559c-.19,0-.448.044-.444.253a.411.411,0,0,0,.108.226,6.226,6.226,0,0,0,1.792,1.553,5.5,5.5,0,0,0-1.505-.139c-.219,0-.509.127-.477.364a.41.41,0,0,0,.1.206,4.551,4.551,0,0,0,2.344,1.66l-1.434.036a.511.511,0,0,0-.262.059c-.258.182-.032.63.219.824a7,7,0,0,0,3.86,1.109c2.584.206,5.3.317,7.633-.943.168-.1.358-.222.391-.428a.79.79,0,0,0-.043-.317c-.283-1.042-.426-2.931-1.283-3.565-.416-.305-.928-.479-1.355-.792A16.517,16.517,0,0,0,374.85,207.834Z" transform="translate(-234.903 -124.627)" fill="url(#linear-gradient-20)"/>
            <path id="Path_272" data-name="Path 272" d="M415.1,172.693c-.81,8.8-15.234,9.875-15.234,9.875l-1.487-5.653-.262-.994s7.727-1.077,9.2-3.751-4.6-11.638-.928-16.637,4.508-3.462,4.508-3.462S415.906,163.895,415.1,172.693Z" transform="translate(-255.446 -91.697)" fill="#6cb1dc"/>
            <path id="Path_273" data-name="Path 273" d="M332.181,171.27a7.007,7.007,0,0,1-.061.824c-.122,1.232-.469,3.486-1.394,4.306-1.3,1.153-1.48-.527-1.451-1.188a7.711,7.711,0,0,1,.161-1.077c.3-1.434,1.9-2.416,2.509-2.741Z" transform="translate(-211.272 -103.425)" fill="url(#linear-gradient-21)"/>
            <path id="Path_274" data-name="Path 274" d="M321.924,156.754c-.122,1.232-.469,3.486-1.394,4.306-.4-.321-.917-.749-1.451-1.188-.717-.594-1.48-1.22-2.021-1.656a7.068,7.068,0,0,1-1.3-1.26,7.405,7.405,0,0,1-.831-1.585l-1.111-2.67c-.358-.875-.717-2.032-.079-2.71.161-.174,1.631-.491,1.727-.721.269-.658-1.433-2.048-1.326-2.773a.8.8,0,0,1,.849-.626c.358.02,1.376,1.054,1.7,1.264.631.4.1.959.717,1.371a8.294,8.294,0,0,1,2.15,1.767,9.584,9.584,0,0,1,1.38,3.169c.244.82.57,1.707.821,2.591C321.813,156.287,321.874,156.521,321.924,156.754Z" transform="translate(-201.075 -88.086)" fill="url(#linear-gradient-22)"/>
            <path id="Path_275" data-name="Path 275" d="M316.646,131.25l-2.39-12.53-.885-4.631,13.89,4.116,4.032,29.975-12.909-4.35Z" transform="translate(-201.068 -68.896)" fill="#6cb1dc"/>
            <path id="Path_276" data-name="Path 276" d="M320.737,136.45l-5.5-13.5,4.343,26.232,12.909,4.35-1.383-10.28Z" transform="translate(-202.268 -74.246)" fill="url(#linear-gradient-23)"/>
            <path id="Path_277" data-name="Path 277" d="M317.468,160.156c.437-.242,1.333-.681,1.559-1.161.054-.115.133-.265.065-.368-.312-.475-1.595.131-1.96,0,.251-.456,2.487-1.838,1.433-2.151-.226-.067-1.627.717-1.853.646.176-.158,1.616-1.291,1.864-1.585a.562.562,0,0,0,.036-.647.444.444,0,0,0-.562-.181,20.7,20.7,0,0,1-2.344,1.014c.154-.281,2.236-1.585,2.319-1.917a.679.679,0,0,0,.022-.4.514.514,0,0,0-.3-.3,2.32,2.32,0,0,0-1.813.257l-1.376.6a1.678,1.678,0,0,0-1.075.927,1.833,1.833,0,0,0-.032.765,10.629,10.629,0,0,0,1.509,4.472c.409.658,1.7,2.246,2.44,2.4C318.052,162.675,316.852,160.532,317.468,160.156Z" transform="translate(-201.099 -92.398)" fill="url(#linear-gradient-24)"/>
            <path id="Path_278" data-name="Path 278" d="M359.946,248.789s4.738-12,10.214-15.413l-1.867-.836s-9.615,11.3-10.751,17.117,1.143,30.767,1.143,30.767h1.577S357.656,251.237,359.946,248.789Z" transform="translate(-229.206 -140.424)" fill="#fff" opacity="0.24"/>
            <path id="Path_279" data-name="Path 279" d="M407.692,179.745a59.581,59.581,0,0,1-9.361,2.848l-.215.048-.047-1.042s7.726-1.077,9.2-3.751-4.6-11.638-.928-16.637a20.2,20.2,0,0,0,.742,7.689C408.294,172.167,411.118,178.16,407.692,179.745Z" transform="translate(-255.414 -97.35)" fill="#fff" opacity="0.24"/>
          </g>
        </g>
      </g>
    </g>
  </g>
</svg>
